# xmcd
# 
# Track frame offsets:
#     150
#     16665
#     40065
#     56487
#     78312
#     97887
#     118737
#     144910
#     174387
#     190737
#     218340
#     242262
#     276087
#     287937
# 
# Disc length: 4326
# 
# Revision: 2
# Processed by: cddbd v1.5.2PL0 Copyright (c) Steve Scherf et al.
# Submitted via: fre:ac v1.0.31
# 
DISCID=ad10e40e
DTITLE=Columbia Blues - The Essential Jimmy Rushing
DYEAR=0
DGENRE=Blues
TTITLE0=Boogie Woogie (I May Be Wrong)
TTITLE1=See See Rider
TTITLE2=Sent For You Yesterday And Here You Come Today
TTITLE3=How Long How Long Blues
TTITLE4=How You Want Lovin' Done
TTITLE5=I Can't Understand
TTITLE6=My Friend Mister Blues
TTITLE7=Sometimes I Think I Do
TTITLE8=Goin' To Chicago
TTITLE9=Every Day I Have The Blues
TTITLE10=Good Morning Blues
TTITLE11=Evenin'
TTITLE12=Take Me Back Baby
TTITLE13=If This Ain't The Blues
EXTD=VCD-6566
EXTT0=
EXTT1=
EXTT2=
EXTT3=
EXTT4=
EXTT5=
EXTT6=
EXTT7=
EXTT8=
EXTT9=
EXTT10=
EXTT11=
EXTT12=
EXTT13=
PLAYORDER=
